<?xml version="1.0" standalone="no"?>
<!DOCTYPE svg PUBLIC "-//W3C//DTD SVG 20010904//EN"
 "http://www.w3.org/TR/2001/REC-SVG-20010904/DTD/svg10.dtd">
<svg version="1.0" xmlns="http://www.w3.org/2000/svg"
 width="1280.000000pt" height="1280.000000pt" viewBox="0 0 1280.000000 1280.000000"
 preserveAspectRatio="xMidYMid meet">
<metadata>
Created by potrace 1.15, written by Peter Selinger 2001-2017
</metadata>
<g transform="translate(0.000000,1280.000000) scale(0.100000,-0.100000)"
fill="#607d8b" stroke="none">
<path d="M5892 12263 l-214 -76 -211 -190 c-117 -104 -259 -235 -317 -291
l-105 -103 -220 -32 -220 -32 -165 -72 c-139 -60 -186 -86 -295 -165 -71 -52
-151 -114 -176 -139 -43 -42 -54 -47 -140 -64 -57 -12 -157 -46 -254 -85 -147
-61 -172 -75 -302 -172 -124 -92 -156 -122 -255 -241 -63 -75 -129 -164 -148
-198 -31 -57 -39 -64 -99 -91 -72 -32 -358 -237 -379 -271 -9 -15 -19 -20 -35
-16 -20 5 -211 -36 -222 -47 -7 -7 -736 -1230 -741 -1242 -3 -7 26 -33 66 -60
53 -35 70 -51 66 -64 -35 -112 -66 -292 -66 -379 0 -95 -1 -100 -28 -125 -15
-14 -122 -86 -238 -160 -119 -76 -274 -186 -356 -252 l-144 -117 -32 -170 -33
-170 97 -186 c82 -158 95 -188 82 -197 -8 -6 -68 -56 -132 -111 l-118 -100
-64 -127 c-68 -136 -70 -146 -53 -263 l12 -77 100 -116 c87 -102 113 -125 205
-183 101 -64 106 -68 147 -144 31 -56 72 -107 148 -184 126 -127 303 -353 410
-524 l77 -124 20 -149 c16 -126 27 -173 74 -305 45 -129 70 -181 145 -305 81
-133 106 -165 230 -291 l140 -143 26 -92 c21 -73 46 -125 117 -243 116 -193
274 -367 423 -465 60 -40 94 -68 91 -76 -3 -8 -37 -59 -76 -115 -69 -98 -71
-103 -53 -119 21 -20 1123 -791 1138 -796 5 -2 44 44 85 102 74 105 75 106
110 100 24 -3 46 -17 70 -44 19 -22 96 -81 170 -133 108 -74 168 -107 301
-165 150 -64 180 -74 309 -95 l142 -24 127 -147 126 -148 163 -96 162 -96 178
-10 177 -10 134 51 c73 28 139 51 147 51 7 0 63 -28 124 -61 l110 -61 202 -31
202 -30 185 24 185 24 170 98 c149 87 185 114 302 222 130 119 137 124 255
174 66 29 203 81 302 116 271 94 470 196 638 326 74 58 152 123 172 146 26 28
49 43 75 48 20 3 82 26 136 51 55 24 104 44 110 44 5 0 26 -16 46 -35 l36 -35
129 142 c72 78 155 167 186 198 31 30 83 87 116 125 126 147 456 499 504 537
28 22 101 100 162 174 153 184 260 381 323 596 l42 147 95 113 c52 62 108 140
125 174 l31 61 138 53 c76 29 185 70 243 92 l105 39 94 152 95 151 7 95 c5 53
8 107 9 121 0 20 12 33 58 60 31 19 143 94 247 168 l190 133 42 151 42 152
-73 152 c-91 187 -154 268 -340 427 l-133 115 -2 114 c-2 143 -3 150 -58 342
-46 159 -109 310 -338 811 -48 105 -122 269 -166 367 -43 97 -98 208 -123 247
l-46 71 51 25 c28 14 49 29 47 33 -2 4 -44 86 -94 182 -50 96 -124 249 -164
340 -43 97 -112 229 -168 320 -52 85 -137 235 -188 332 l-94 177 0 75 c0 73
-2 79 -79 238 l-78 163 -169 125 -169 125 -230 83 c-176 63 -280 94 -441 130
l-212 47 -139 131 c-121 113 -160 143 -300 227 -153 92 -169 99 -339 151 -152
46 -203 56 -337 70 l-158 17 -80 65 c-43 36 -158 150 -255 252 -175 185 -179
188 -338 290 l-162 102 -155 -31 c-85 -17 -164 -37 -176 -45 -21 -13 -27 -10
-103 57 l-81 71 -222 74 c-122 41 -224 74 -227 73 -3 0 -101 -34 -218 -76z
m1035 -810 c81 -87 182 -194 223 -238 59 -63 128 -118 323 -254 l248 -173 302
-100 301 -101 202 -176 201 -176 270 -153 c149 -84 289 -162 312 -173 34 -16
55 -40 114 -132 40 -62 76 -119 81 -127 4 -8 -42 36 -103 99 l-110 113 -58
-55 -58 -55 -325 232 -325 232 -352 168 -353 168 -377 104 -378 105 -395 36
-395 37 -385 -33 -385 -33 -381 -104 -382 -103 -347 -166 -346 -165 -267 -193
c-147 -106 -273 -196 -279 -201 -7 -4 -23 0 -35 9 -13 8 -40 20 -62 26 l-39
10 38 39 c21 21 92 105 159 185 116 141 124 149 181 170 33 12 184 76 336 144
270 119 281 125 466 255 l189 132 313 63 c308 61 319 64 616 171 258 92 316
117 396 167 52 33 191 119 309 191 118 72 240 149 270 171 43 31 64 40 97 41
40 0 44 -3 190 -157z m-1032 73 c-22 -13 -51 -26 -65 -30 -14 -4 0 7 30 23 65
36 92 41 35 7z m3797 -1194 c193 -67 193 -68 318 -161 l125 -93 53 -105 c29
-58 52 -107 50 -109 -2 -2 -41 21 -85 51 -45 30 -182 102 -305 160 l-223 106
-58 87 c-32 48 -65 97 -74 110 -9 13 -11 22 -5 22 6 0 98 -30 204 -68z m-6627
-712 c-16 -16 -34 -30 -39 -30 -12 1 49 60 61 60 4 0 -6 -13 -22 -30z m3430
-624 c229 -23 252 -27 464 -86 203 -56 243 -71 435 -162 185 -88 233 -116 394
-230 100 -71 182 -132 182 -134 0 -2 -18 -27 -40 -56 -22 -29 -40 -58 -40 -63
0 -6 68 -78 151 -160 131 -131 167 -174 281 -340 116 -168 141 -213 223 -395
106 -234 113 -242 201 -233 l53 6 10 -39 c5 -22 26 -102 46 -179 32 -123 39
-169 53 -372 16 -229 16 -234 -7 -455 -22 -213 -26 -233 -87 -441 -53 -181
-76 -243 -136 -363 l-73 -145 -58 6 c-50 6 -62 4 -90 -15 -18 -12 -90 -101
-162 -197 -110 -148 -154 -197 -285 -319 -132 -123 -182 -162 -338 -262 l-184
-117 5 -71 5 -71 -147 -62 c-116 -49 -191 -72 -361 -112 -201 -47 -230 -51
-440 -64 -219 -13 -231 -13 -450 11 -207 23 -241 30 -435 85 -115 34 -211 62
-212 63 -1 1 7 32 17 69 l19 68 -202 98 c-168 81 -231 118 -372 219 -139 99
-199 150 -329 281 l-159 160 -46 -25 c-25 -13 -54 -30 -63 -36 -15 -11 -20 -9
-32 7 -209 290 -233 330 -328 527 -83 176 -105 232 -157 415 -57 197 -63 230
-86 440 -25 228 -25 228 -9 449 13 188 21 242 53 369 l37 148 35 4 c19 2 55 9
79 16 l44 13 91 200 c77 169 109 227 205 365 93 135 142 194 275 330 150 153
163 169 169 210 5 32 2 57 -9 83 -9 21 -13 42 -8 46 4 4 69 50 143 102 109 76
176 113 345 190 192 88 229 101 428 153 200 51 236 57 435 74 119 10 219 19
222 20 3 0 113 -10 245 -23z m-4409 -921 l-65 -149 22 -30 c12 -17 39 -48 61
-70 l39 -39 -76 -326 -76 -326 -21 -365 -20 -365 45 -375 44 -375 105 -350
104 -350 161 -328 161 -329 212 -295 211 -294 -35 -35 -34 -35 -61 129 c-48
102 -98 182 -240 383 -98 139 -208 285 -244 325 -72 77 -69 70 -105 263 -13
76 -41 154 -139 385 l-122 291 -165 88 -166 88 -50 108 c-27 59 -75 181 -107
271 -31 91 -71 199 -87 240 -17 41 -48 125 -70 185 -21 61 -68 179 -104 262
-35 84 -64 155 -64 157 0 3 38 32 83 65 53 38 141 121 237 223 85 90 173 183
196 208 40 43 45 54 89 218 45 172 46 174 38 280 -4 59 -8 113 -8 120 0 7 61
59 135 115 126 95 136 105 149 150 8 26 18 44 23 39 5 -5 -20 -76 -56 -157z
m9069 -391 c151 -331 318 -764 302 -780 -2 -3 -28 30 -57 72 -55 79 -113 219
-204 489 -26 77 -68 187 -94 244 -35 76 -47 112 -44 138 3 19 6 32 8 30 2 -2
42 -88 89 -193z m-509 101 c23 -52 24 -66 24 -238 0 -156 4 -205 29 -344 l28
-163 116 -194 117 -194 202 -185 c112 -102 245 -225 295 -273 l93 -89 15 -106
c23 -164 28 -149 -86 -282 -94 -108 -124 -134 -406 -349 -168 -127 -308 -241
-312 -252 -5 -12 -37 -147 -72 -300 l-64 -280 -222 -199 c-147 -132 -224 -208
-228 -226 -7 -26 -7 -26 -27 14 -11 22 -27 48 -35 57 -14 15 -1 45 140 316
l155 300 112 358 111 359 46 380 46 380 -22 390 -23 390 -84 344 c-46 189 -84
346 -84 350 0 3 18 17 41 31 22 14 45 33 50 43 5 9 12 17 15 17 3 0 16 -25 30
-55z m-9841 -1297 c-4 -18 -7 -113 -8 -210 -1 -98 -4 -177 -7 -177 -3 1 -35
34 -72 74 -81 88 -85 111 -37 208 27 54 99 136 122 137 4 0 5 -15 2 -32z
m11123 -620 l41 -67 -28 -141 c-33 -168 -53 -197 -62 -92 -4 37 -9 144 -13
237 -8 190 -13 186 62 63z m-314 -525 c-4 -34 -9 -65 -13 -70 -3 -6 -89 -65
-191 -133 -102 -68 -214 -150 -249 -182 -34 -33 -65 -58 -66 -56 -8 8 29 134
44 150 19 21 475 357 479 354 1 -2 -1 -30 -4 -63z m-1512 -1451 c-13 -39 -28
-59 -59 -82 -24 -18 -43 -27 -43 -20 0 11 112 161 117 156 2 -1 -5 -26 -15
-54z m-1753 -1356 c13 -14 36 -30 52 -36 16 -7 29 -15 28 -19 -1 -14 -158
-131 -176 -131 -10 0 -161 -29 -334 -65 l-314 -64 -260 -114 c-143 -63 -324
-146 -402 -185 -79 -40 -151 -72 -161 -72 -10 0 -58 14 -108 30 -69 24 -158
40 -397 72 l-308 41 -161 -27 -160 -26 -97 89 -98 90 -264 66 c-145 37 -300
72 -343 78 -100 15 -107 25 -67 98 l31 56 347 -103 348 -102 370 -46 370 -45
380 19 380 19 355 80 355 79 290 120 c160 66 297 120 306 121 8 1 26 -10 38
-23z m-549 -654 c0 -4 -17 -25 -39 -46 -36 -35 -45 -38 -137 -52 -55 -7 -108
-14 -119 -14 -23 1 193 97 245 109 48 12 50 12 50 3z m-1657 -282 c135 -30
168 -40 163 -48 -2 -4 -25 -18 -51 -31 l-46 -23 -77 53 c-84 57 -100 69 -89
69 4 0 49 -9 100 -20z m-483 -107 c75 -65 77 -68 50 -71 -20 -2 -58 14 -129
55 -55 32 -101 61 -101 65 0 6 29 12 84 16 10 1 53 -28 96 -65z m1295 -117
c125 -42 155 -55 135 -60 -206 -52 -235 -55 -383 -40 -78 7 -153 14 -166 14
-15 0 -21 4 -15 9 17 17 239 131 254 131 9 0 87 -24 175 -54z"/>
</g>
</svg>
